<svg width="116" height="122" viewBox="0 0 116 122" fill="none" xmlns="http://www.w3.org/2000/svg">
<path d="M5.54936 0.31744C2.77127 -0.849108 -0.250338 1.35837 0.0164129 4.35961L10.1423 118.287C10.3823 120.987 13.1814 122.672 15.6794 121.619L63.345 101.541C64.0991 101.223 64.9325 101.144 65.7327 101.315L98.5441 108.318C101.913 109.037 104.555 105.445 102.864 102.443L85.0921 70.8852C84.3195 69.5134 84.4236 67.8158 85.358 66.5486L114.402 27.1592C116.557 24.2365 114.016 20.1857 110.447 20.8536L72.8944 27.8808C72.1255 28.0247 71.3312 27.94 70.61 27.6371L5.54936 0.31744Z" fill="black"/>
</svg>
