<svg width="164" height="104" viewBox="0 0 164 104" fill="none" xmlns="http://www.w3.org/2000/svg">
<path d="M75.3752 3.77916C91.8622 8.7361 94.396 44.7448 98.5631 47.1558C102.73 49.5667 108.356 50.2555 110.93 26.5041C113.504 2.75266 122.262 3.78591 141.847 6.36568C159.483 8.68882 164 38.2414 164 62.1346C164 91.5656 152.151 96.7319 132.054 91.5656C115.373 87.2773 119.177 78.66 98.5631 81.753C90.4104 82.9754 103.201 102.405 71.2552 102.405C60.4342 103.607 34.1612 105.295 15.6109 102.405C-2.93937 99.5143 0.495123 93.4566 0.152346 85.3661C-0.190432 77.2756 0.152346 50.681 0.152346 23.4043C0.152346 6.36568 3.24406 0.166128 15.6109 0.166128C30.552 0.166128 58.8883 -1.17778 75.3752 3.77916Z" fill="black"/>
</svg>
