<svg width="164" height="94" viewBox="0 0 164 94" fill="none" xmlns="http://www.w3.org/2000/svg">
<path d="M7.05457 90.5171C-0.772536 82.6684 -3.80878 13.9434 7.05457 3.44804C11.7386 -1.07294 27.225 0.151018 43.2072 0.151018C65.2391 0.151018 78.5284 7.17347 88.0873 13.3621C97.6537 19.5507 105.122 22.4423 114.277 25.3262C123.424 28.2178 140.047 27.8047 154.587 40.182C169.127 52.5592 164.977 67.828 154.587 77.3137C144.197 86.7993 128.001 80.6107 119.67 77.3137C111.363 74.0166 102.216 71.125 88.0873 70.2912C73.9664 69.4574 77.2773 71.1251 46.9377 85.5601C22.6707 97.1188 11.2656 94.7473 7.04693 90.5171H7.05457Z" fill="black"/>
</svg>
