<svg width="127" height="123" viewBox="0 0 127 123" fill="none" xmlns="http://www.w3.org/2000/svg">
<path d="M9.60605 62.9879C8.93452 63.6006 8.49171 64.4237 8.35057 65.3217L0.0497166 118.136C-0.386907 120.914 2.10372 123.264 4.85158 122.666L85.073 105.212C85.7821 105.058 86.4359 104.714 86.9643 104.216L125.022 68.3925C127.032 66.4997 126.566 63.1871 124.11 61.9234L87.9908 43.3334C87.2198 42.9366 86.5987 42.3 86.2209 41.5196L67.216 2.25731C65.8624 -0.53916 61.9765 -0.792209 60.2717 1.80509L36.0717 38.6723C35.8883 38.9517 35.6706 39.207 35.4238 39.4323L9.60605 62.9879Z" fill="black"/>
</svg>
