<svg width="131" height="128" viewBox="0 0 131 128" fill="none" xmlns="http://www.w3.org/2000/svg">
<path d="M24.452 15.6996C20.9536 14.7962 18.1452 18.6268 20.0592 21.6914L35.5662 46.5214C36.4198 47.8882 36.3699 49.6338 35.4395 50.9496L0.736985 100.027C-0.956373 102.422 0.418066 105.764 3.30624 106.275L125.688 127.924C128.625 128.443 131.076 125.683 130.214 122.828L109.647 54.7418C109.428 54.0177 109.42 53.2464 109.621 52.5174L122.761 5.07954C123.701 1.68627 120.115 -1.17834 117.013 0.488133L69.2232 26.1647C68.337 26.6408 67.304 26.7656 66.3299 26.514L24.452 15.6996Z" fill="black"/>
</svg>
